HIERARCHY
ROOT Hips
{
	OFFSET 0.000000 0.000000 0.000000
	CHANNELS 6 Xposition Yposition Zposition Xrotation Yrotation Zrotation
	JOINT LeftUpLeg_virtual
	{
		OFFSET 0.000000 0.000000 0.000000
		CHANNELS 3 Xrotation Yrotation Zrotation
		JOINT LeftUpLeg
		{
			OFFSET 15.427100 -6.655098 0.678600
			CHANNELS 3 Xrotation Yrotation Zrotation
			JOINT LeftLeg
			{
				OFFSET 4.081073 -39.591068 13.024000
				CHANNELS 3 Xrotation Yrotation Zrotation
				JOINT LeftFoot
				{
					OFFSET -4.081074 -37.707932 -15.979700
					CHANNELS 3 Xrotation Yrotation Zrotation
					JOINT LeftToeBase
					{
						OFFSET 5.346399 -15.068900 20.645000
						CHANNELS 3 Xrotation Yrotation Zrotation
						JOINT LeftToe_End
						{
							OFFSET 2.754700 0.931300 11.300900
							CHANNELS 3 Xrotation Yrotation Zrotation
							End Site
							{
								OFFSET 0 0 0
							}
						}
					}
				}
			}
		}
	}
	JOINT RightUpLeg_virtual
	{
		OFFSET 0.000000 0.000000 0.000000
		CHANNELS 3 Xrotation Yrotation Zrotation
		JOINT RightUpLeg
		{
			OFFSET -15.569500 -6.655098 0.678600
			CHANNELS 3 Xrotation Yrotation Zrotation
			JOINT RightLeg
			{
				OFFSET -4.081825 -39.591045 13.023800
				CHANNELS 3 Xrotation Yrotation Zrotation
				JOINT RightFoot
				{
					OFFSET 4.081824 -37.707954 -15.979600
					CHANNELS 3 Xrotation Yrotation Zrotation
					JOINT RightToeBase
					{
						OFFSET -5.346400 -15.068900 20.645000
						CHANNELS 3 Xrotation Yrotation Zrotation
						JOINT RightToe_End
						{
							OFFSET -2.754700 0.931300 11.300900
							CHANNELS 3 Xrotation Yrotation Zrotation
							End Site
							{
								OFFSET 0 0 0
							}
						}
					}
				}
			}
		}
	}
	JOINT Spine_virtual
	{
		OFFSET 0.000000 0.000000 0.000000
		CHANNELS 3 Xrotation Yrotation Zrotation
		JOINT Spine
		{
			OFFSET -0.279200 12.230698 -2.892100
			CHANNELS 3 Xrotation Yrotation Zrotation
			JOINT Spine1
			{
				OFFSET -0.232667 10.192268 -1.242267
				CHANNELS 3 Xrotation Yrotation Zrotation
				JOINT Spine1_split
				{
					OFFSET -0.232667 10.192268 -1.242267
					CHANNELS 3 Xrotation Yrotation Zrotation
					JOINT Spine2
					{
						OFFSET -0.232667 10.192268 -1.242267
						CHANNELS 3 Xrotation Yrotation Zrotation
						JOINT Neck_virtual
						{
							OFFSET 0.000000 0.000000 0.000000
							CHANNELS 3 Xrotation Yrotation Zrotation
							JOINT Neck
							{
								OFFSET -0.418800 17.814194 8.416900
								CHANNELS 3 Xrotation Yrotation Zrotation
								JOINT Head
								{
									OFFSET 0.000000 7.031097 3.806800
									CHANNELS 3 Xrotation Yrotation Zrotation
									JOINT HeadTop_End
									{
										OFFSET 0.000000 24.646606 12.978600
										CHANNELS 3 Xrotation Yrotation Zrotation
										End Site
										{
											OFFSET 0 0 0
										}
									}
								}
							}
						}
						JOINT LeftShoulder_virtual
						{
							OFFSET 0.000000 0.000000 0.000000
							CHANNELS 3 Xrotation Yrotation Zrotation
							JOINT LeftShoulder
							{
								OFFSET 8.476499 7.247704 -3.868750
								CHANNELS 3 Xrotation Yrotation Zrotation
								JOINT LeftShoulder_split
								{
									OFFSET 8.476499 7.247704 -3.868750
									CHANNELS 3 Xrotation Yrotation Zrotation
									JOINT LeftArm
									{
										OFFSET 9.308998 -2.777710 0.208600
										CHANNELS 3 Xrotation Yrotation Zrotation
										JOINT LeftForeArm
										{
											OFFSET 29.972298 0.000000 0.000000
											CHANNELS 3 Xrotation Yrotation Zrotation
											JOINT LeftHand
											{
												OFFSET 26.026505 0.000000 0.000000
												CHANNELS 3 Xrotation Yrotation Zrotation
												End Site
												{
													OFFSET 0 0 0
												}
											}
										}
									}
								}
							}
						}
						JOINT RightShoulder_virtual
						{
							OFFSET 0.000000 0.000000 0.000000
							CHANNELS 3 Xrotation Yrotation Zrotation
							JOINT RightShoulder
							{
								OFFSET -7.570500 7.247704 -3.868750
								CHANNELS 3 Xrotation Yrotation Zrotation
								JOINT RightShoulder_split
								{
									OFFSET -7.570500 7.247704 -3.868750
									CHANNELS 3 Xrotation Yrotation Zrotation
									JOINT RightArm
									{
										OFFSET -9.308998 -2.777710 0.208500
										CHANNELS 3 Xrotation Yrotation Zrotation
										JOINT RightForeArm
										{
											OFFSET -29.972300 0.000000 0.000000
											CHANNELS 3 Xrotation Yrotation Zrotation
											JOINT RightHand
											{
												OFFSET -26.026505 0.000000 0.000000
												CHANNELS 3 Xrotation Yrotation Zrotation
												End Site
												{
													OFFSET 0 0 0
												}
											}
										}
									}
								}
							}
						}
					}
				}
			}
		}
	}
}
MOTION
Frames: 5
Frame Time: 0.03333333
-7.556518 85.350914 42.416092 0.000000 0.000000 0.000000 28.657428 2.895645 -16.997226 -73.577311 -3.900064 15.925566 30.153841 11.416423 -4.590218 13.518131 -0.308659 6.440135 -0.206847 0.000002 -0.000001 0.000000 0.000000 0.000000 28.657428 2.895645 -16.997226 1.262328 -21.897711 -20.975374 71.714562 -0.839168 -1.528340 25.348874 2.570806 5.735315 -0.000003 0.000001 -0.000004 0.000000 0.000000 0.000000 28.657428 2.895645 -16.997226 6.435278 15.317676 -9.416921 11.648213 11.205351 -7.545686 0.000000 0.000000 0.000000 0.000000 0.000000 0.000000 11.698376 11.155149 -7.567835 -9.883402 -7.149089 7.463520 -30.256328 -33.917661 18.385672 0.000000 0.000000 0.000000 11.698376 11.155149 -7.567835 -0.266287 3.848962 2.890074 0.000000 0.000000 0.000000 28.180068 -44.869838 -18.300146 0.000000 -24.379742 -0.000007 0.000000 0.000000 0.000000 11.698376 11.155149 -7.567835 4.952160 16.802291 -7.381382 0.000000 0.000000 0.000000 -6.598530 60.118219 21.651636 -0.000006 37.609112 0.000011 0.000000 0.000000 0.000000 
-7.980205 84.673668 43.893879 0.000000 0.000000 0.000000 27.161514 4.598106 -16.655049 -72.743618 -2.658945 15.382780 32.593342 9.416614 -4.539320 11.662848 -0.158159 6.228215 -0.218900 -0.000007 0.000000 0.000000 0.000000 0.000000 27.161514 4.598106 -16.655049 -2.257943 -21.929748 -19.491854 68.923698 -0.207053 -2.337629 25.877493 2.206674 3.687524 0.000003 0.000004 -0.000001 0.000000 0.000000 0.000000 27.161514 4.598106 -16.655049 6.426434 13.201390 -10.088260 11.743709 10.656880 -7.606246 0.000000 0.000000 0.000000 0.000000 0.000000 0.000000 11.859991 10.534733 -7.618945 -10.124067 -6.973861 7.156028 -30.258780 -33.172473 18.492998 0.000000 0.000000 0.000000 11.859991 10.534733 -7.618945 -0.246486 3.605305 3.561311 0.000000 0.000000 0.000000 28.114718 -48.438882 -10.572337 0.000010 -21.961925 -0.000003 0.000000 0.000000 0.000000 11.859991 10.534733 -7.618945 4.570564 15.669526 -6.602635 0.000000 0.000000 0.000000 -6.422772 55.485868 16.577462 -0.000009 34.357586 0.000023 0.000000 0.000000 0.000000 
-8.238446 84.269966 45.525791 0.000000 0.000000 0.000000 25.587388 6.235910 -16.360514 -71.487779 -1.092462 14.842409 34.612844 7.242441 -4.168117 9.754595 -0.019568 6.111255 -0.229835 -0.000007 0.000001 0.000000 0.000000 0.000000 25.587388 6.235910 -16.360514 -5.647638 -21.591135 -18.217726 65.807199 0.160691 -3.459997 26.089962 2.044658 2.982462 -0.000004 0.000018 -0.000012 0.000000 0.000000 0.000000 25.587388 6.235910 -16.360514 6.485704 10.978385 -10.763066 12.021811 9.741556 -7.730865 0.000000 0.000000 0.000000 0.000000 0.000000 0.000000 12.202111 9.561375 -7.685882 -10.392269 -6.743326 6.915841 -30.125280 -32.065139 18.818932 0.000000 0.000000 0.000000 12.202111 9.561375 -7.685882 -0.221328 3.342414 4.318526 0.000000 0.000000 0.000000 24.076424 -51.955965 -5.803362 0.000012 -19.112211 -0.000007 0.000000 0.000000 0.000000 12.202111 9.561375 -7.685882 4.269300 14.317940 -6.742141 0.000000 0.000000 0.000000 -7.185951 51.966671 12.264341 -0.000011 31.452796 0.000028 0.000000 0.000000 0.000000 
-8.094958 84.150101 47.400051 0.000000 0.000000 0.000000 23.827409 7.801416 -15.973181 -69.406060 0.414839 14.182316 36.405619 5.502092 -3.669359 7.488514 0.088827 6.021122 -0.235202 -0.000002 0.000001 0.000000 0.000000 0.000000 23.827409 7.801416 -15.973181 -9.030780 -21.218314 -17.293025 62.197834 0.733695 -4.520250 25.715416 1.679498 0.853744 -0.000015 0.000010 0.000008 0.000000 0.000000 0.000000 23.827409 7.801416 -15.973181 6.602288 8.589912 -11.363340 12.485674 8.293026 -7.856388 0.000000 0.000000 0.000000 0.000000 0.000000 0.000000 12.725227 8.079464 -7.691584 -10.634245 -6.399409 6.712318 -29.551507 -30.333519 19.557400 0.000000 0.000000 0.000000 12.725227 8.079464 -7.691584 -0.170787 3.027219 5.120392 0.000000 0.000000 0.000000 16.174740 -54.878350 -4.109480 0.000003 -16.222515 0.000001 0.000000 0.000000 0.000000 12.725227 8.079464 -7.691584 4.077261 13.192560 -7.620839 0.000000 0.000000 0.000000 -8.728098 49.548057 8.555951 0.000011 29.088355 -0.000010 0.000000 0.000000 0.000000 
-7.449394 84.212624 49.500294 0.000000 0.000000 0.000000 21.748816 8.954186 -15.757993 -66.514281 1.301760 13.896631 38.385243 4.567519 -3.349541 4.600406 0.174480 5.914964 -0.229659 0.000002 -0.000004 0.000000 0.000000 0.000000 21.748816 8.954186 -15.757993 -12.352915 -21.551376 -16.721804 57.992828 2.282072 -5.418964 24.549081 1.140793 -2.863124 0.000000 -0.000002 0.000003 0.000000 0.000000 0.000000 21.748816 8.954186 -15.757993 6.741151 6.196441 -11.760598 13.055925 6.293580 -7.904343 0.000000 0.000000 0.000000 0.000000 0.000000 0.000000 13.347413 6.075215 -7.565083 -10.841225 -5.905778 6.480940 -28.415515 -27.813317 20.654017 0.000000 0.000000 0.000000 13.347413 6.075215 -7.565083 -0.092122 2.702616 5.828618 0.000000 0.000000 0.000000 6.000719 -56.642055 -4.742930 0.000000 -14.045330 0.000000 0.000000 0.000000 0.000000 13.347413 6.075215 -7.565083 3.997505 12.510321 -8.958952 0.000000 0.000000 0.000000 -10.425322 48.134167 5.005189 -0.000005 27.233595 0.000007 0.000000 0.000000 0.000000 
